<svg width="263" height="161" viewBox="0 0 263 161" fill="none" xmlns="http://www.w3.org/2000/svg">
<g filter="url(#filter0_d)">
<path d="M131.062 52.416C123.925 52.221 117.724 52.611 112.459 53.586C106.999 54.6 102.397 55.77 98.6919 57.213C94.9869 58.617 92.1009 60.06 89.9949 61.542C87.8889 62.985 86.4459 64.116 85.5879 64.896C85.2369 65.208 84.9639 65.52 84.7689 65.715C84.5739 65.949 84.4569 66.066 84.4179 66.105C83.9109 66.768 83.4819 67.548 83.1309 68.445C82.7799 69.342 82.6239 70.2 82.6629 70.98L82.1559 87.711C82.1169 89.154 82.6239 90.285 83.7159 91.182C84.6909 91.884 85.9389 92.079 87.3819 91.767L106.921 87.282L106.999 87.204C107.662 87.048 108.403 86.619 109.105 85.917C110.158 84.942 110.704 83.733 110.86 82.29L110.977 75.036C110.977 74.88 111.055 74.646 111.172 74.412C111.289 74.178 111.406 73.983 111.484 73.905L112.459 73.281C113.083 72.891 114.175 72.462 115.696 71.994C117.217 71.565 119.245 71.175 121.78 70.824C124.276 70.512 127.396 70.395 131.101 70.512V52.416H131.062Z" fill="#4C8AA5"/>
<path d="M131.062 52.416C138.199 52.221 144.4 52.611 149.665 53.586C155.125 54.6 159.727 55.77 163.432 57.213C167.137 58.617 170.023 60.06 172.129 61.542C174.235 62.985 175.678 64.116 176.536 64.896C176.887 65.208 177.16 65.52 177.355 65.715C177.55 65.949 177.667 66.066 177.706 66.105C178.213 66.768 178.642 67.548 178.993 68.445C179.344 69.342 179.5 70.2 179.461 70.98L179.968 87.711C180.007 89.154 179.5 90.285 178.408 91.182C177.433 91.884 176.185 92.079 174.742 91.767L155.242 87.321L155.164 87.243C154.501 87.087 153.76 86.658 153.058 85.956C152.005 84.981 151.459 83.772 151.303 82.329L151.186 75.075C151.186 74.919 151.108 74.685 150.991 74.451C150.874 74.217 150.757 74.022 150.679 73.944L149.704 73.32C149.08 72.93 147.988 72.501 146.467 72.033C144.946 71.604 142.918 71.214 140.383 70.863C137.887 70.551 134.767 70.434 131.062 70.551V52.416Z" fill="#2A566F"/>
<path d="M173.962 119.847H88.0454C87.3824 119.847 86.7974 119.301 86.7974 118.599V117.78C86.7974 117.117 87.3434 116.532 88.0454 116.532H173.962C174.625 116.532 175.21 117.078 175.21 117.78V118.599C175.21 119.301 174.664 119.847 173.962 119.847Z" fill="white"/>
<path d="M131.062 90.012V116.532H90.7363V106.47C90.7363 106.47 116.593 95.706 119.284 90.012H131.062Z" fill="#4C8AA5"/>
<path d="M131.062 90.012V116.532H171.389V106.47C171.389 106.47 145.532 95.706 142.841 90.012H131.062Z" fill="#2A566F"/>
<path d="M131.062 119.847H81.415V145.431H131.062V119.847Z" fill="#4C8AA5"/>
<path d="M180.709 119.847H131.062V145.431H180.709V119.847Z" fill="#2A566F"/>
<path d="M131.179 137.202C142.336 137.202 151.381 128.157 151.381 117C151.381 105.843 142.336 96.798 131.179 96.798C120.022 96.798 110.977 105.843 110.977 117C110.977 128.157 120.022 137.202 131.179 137.202Z" fill="white"/>
<path d="M131.179 103.662C132.32 103.662 133.246 102.737 133.246 101.595C133.246 100.453 132.32 99.528 131.179 99.528C130.037 99.528 129.112 100.453 129.112 101.595C129.112 102.737 130.037 103.662 131.179 103.662Z" fill="#4C8AA5"/>
<path d="M123.496 105.729C124.638 105.729 125.563 104.804 125.563 103.662C125.563 102.52 124.638 101.595 123.496 101.595C122.355 101.595 121.429 102.52 121.429 103.662C121.429 104.804 122.355 105.729 123.496 105.729Z" fill="#4C8AA5"/>
<path d="M117.841 111.384C118.983 111.384 119.908 110.459 119.908 109.317C119.908 108.175 118.983 107.25 117.841 107.25C116.699 107.25 115.774 108.175 115.774 109.317C115.774 110.459 116.699 111.384 117.841 111.384Z" fill="#4C8AA5"/>
<path d="M115.774 119.067C116.916 119.067 117.841 118.142 117.841 117C117.841 115.858 116.916 114.933 115.774 114.933C114.632 114.933 113.707 115.858 113.707 117C113.707 118.142 114.632 119.067 115.774 119.067Z" fill="#4C8AA5"/>
<path d="M117.841 126.789C118.983 126.789 119.908 125.864 119.908 124.722C119.908 123.58 118.983 122.655 117.841 122.655C116.699 122.655 115.774 123.58 115.774 124.722C115.774 125.864 116.699 126.789 117.841 126.789Z" fill="#4C8AA5"/>
<path d="M123.496 132.444C124.638 132.444 125.563 131.519 125.563 130.377C125.563 129.235 124.638 128.31 123.496 128.31C122.355 128.31 121.429 129.235 121.429 130.377C121.429 131.519 122.355 132.444 123.496 132.444Z" fill="#4C8AA5"/>
<path d="M131.179 134.472C132.32 134.472 133.246 133.547 133.246 132.405C133.246 131.263 132.32 130.338 131.179 130.338C130.037 130.338 129.112 131.263 129.112 132.405C129.112 133.547 130.037 134.472 131.179 134.472Z" fill="#2A566F"/>
<path d="M138.901 132.444C140.043 132.444 140.968 131.519 140.968 130.377C140.968 129.235 140.043 128.31 138.901 128.31C137.759 128.31 136.834 129.235 136.834 130.377C136.834 131.519 137.759 132.444 138.901 132.444Z" fill="#2A566F"/>
<path d="M144.556 126.789C145.698 126.789 146.623 125.864 146.623 124.722C146.623 123.58 145.698 122.655 144.556 122.655C143.415 122.655 142.489 123.58 142.489 124.722C142.489 125.864 143.415 126.789 144.556 126.789Z" fill="#2A566F"/>
<path d="M146.584 119.067C147.726 119.067 148.651 118.142 148.651 117C148.651 115.858 147.726 114.933 146.584 114.933C145.443 114.933 144.517 115.858 144.517 117C144.517 118.142 145.443 119.067 146.584 119.067Z" fill="#2A566F"/>
<path d="M144.556 111.384C145.698 111.384 146.623 110.459 146.623 109.317C146.623 108.175 145.698 107.25 144.556 107.25C143.415 107.25 142.489 108.175 142.489 109.317C142.489 110.459 143.415 111.384 144.556 111.384Z" fill="#2A566F"/>
<path d="M138.901 105.729C140.043 105.729 140.968 104.804 140.968 103.662C140.968 102.52 140.043 101.595 138.901 101.595C137.759 101.595 136.834 102.52 136.834 103.662C136.834 104.804 137.759 105.729 138.901 105.729Z" fill="#2A566F"/>
<path d="M122.521 92.43H121.585C120.805 92.43 120.181 91.806 120.181 91.026V76.284C120.181 75.504 120.805 74.88 121.585 74.88H122.521C123.301 74.88 123.925 75.504 123.925 76.284V91.026C123.925 91.806 123.301 92.43 122.521 92.43Z" fill="white"/>
<path d="M140.539 92.43H139.603C138.823 92.43 138.199 91.806 138.199 91.026V76.284C138.199 75.504 138.823 74.88 139.603 74.88H140.539C141.319 74.88 141.943 75.504 141.943 76.284V91.026C141.943 91.806 141.319 92.43 140.539 92.43Z" fill="white"/>
</g>
<g filter="url(#filter1_d)">
<path d="M6.26221 127.998L11.0982 140.283L15.8952 152.607L36.4092 130.416L6.26221 127.998Z" fill="#F89D18"/>
<path d="M56.9232 108.186L61.7592 120.51L66.5562 132.834L36.4092 130.416L56.9232 108.186Z" fill="#F89D18"/>
<path d="M36.409 130.416C36.409 130.416 16.87 151.554 15.895 152.607L41.206 142.701L66.517 132.795L36.409 130.416Z" fill="#FFBF0F"/>
<path d="M6.26221 127.998L23.9292 98.4749L56.9232 108.186L36.4092 130.416L6.26221 127.998Z" fill="#FFBF0F"/>
<path d="M10.552 128.31L36.409 130.416L25.762 103.116L4 111.618L10.552 128.31Z" fill="white"/>
<path d="M54.0372 111.345L36.4092 130.416L25.7622 103.116L47.4852 94.614L54.0372 111.345Z" fill="#CDE8D9"/>
<path opacity="0.55" d="M46.3931 101.244L8.99211 115.83C8.64111 115.947 8.25112 115.791 8.13412 115.44C8.01712 115.089 8.17312 114.699 8.52412 114.582L45.8861 99.996C46.2371 99.879 46.6271 100.035 46.7441 100.386C46.9001 100.698 46.7051 101.088 46.3931 101.244Z" fill="#2A566F"/>
<path opacity="0.55" d="M48.2262 105.924L10.8642 120.51C10.5132 120.627 10.1232 120.471 10.0062 120.12C9.88919 119.769 10.0452 119.379 10.3962 119.262L47.7582 104.676C48.1092 104.559 48.4992 104.715 48.6162 105.066C48.7332 105.417 48.5382 105.807 48.2262 105.924Z" fill="#2A566F"/>
<path opacity="0.55" d="M50.0592 110.604L12.6972 125.19C12.3462 125.307 11.9562 125.151 11.8392 124.8C11.7222 124.449 11.8782 124.059 12.2292 123.942L49.5912 109.356C49.9422 109.239 50.3322 109.395 50.4492 109.746C50.5662 110.097 50.3712 110.487 50.0592 110.604Z" fill="#2A566F"/>
</g>
<g filter="url(#filter2_d)">
<path d="M217.447 99.879L257.227 111.189C257.89 111.384 258.241 112.047 258.085 112.71L250.792 138.216C250.597 138.879 249.934 139.23 249.271 139.074L221.113 131.079C217.564 133.653 212.182 137.358 212.182 137.358L215.575 129.519L209.491 127.803C208.828 127.608 208.477 126.945 208.633 126.282L215.887 100.737C216.121 100.074 216.784 99.684 217.447 99.879Z" fill="#F89D18"/>
<path d="M243.304 97.188L203.524 85.878C202.861 85.683 202.198 86.073 202.003 86.736L194.749 112.281C194.554 112.944 194.944 113.607 195.607 113.802L223.765 121.797C225.442 125.892 228.055 131.82 228.055 131.82L229.303 123.396L235.387 125.112C236.05 125.307 236.713 124.917 236.908 124.254L244.162 98.709C244.357 98.046 243.967 97.383 243.304 97.188Z" fill="#FFBF0F"/>
<path d="M211.399 106.844L206.022 105.316L206.235 104.567L209.972 102.218C210.529 101.86 210.928 101.555 211.17 101.303C211.417 101.049 211.586 100.762 211.677 100.442C211.798 100.014 211.769 99.6257 211.587 99.2777C211.406 98.9298 211.099 98.6944 210.667 98.5716C210.149 98.4243 209.702 98.4579 209.329 98.6726C208.96 98.8845 208.701 99.2535 208.551 99.7796L207.509 99.4833C207.723 98.7281 208.139 98.1863 208.756 97.8581C209.377 97.531 210.095 97.4833 210.91 97.7149C211.673 97.9316 212.219 98.304 212.548 98.832C212.879 99.3563 212.949 99.951 212.76 100.616C212.531 101.424 211.743 102.24 210.396 103.063L207.521 104.822L211.641 105.993L211.399 106.844ZM217.688 105.653L218.827 105.976L218.585 106.827L217.446 106.504L216.905 108.409L215.857 108.111L216.398 106.206L212.661 105.144L212.836 104.53L218.127 99.887L219.237 100.202L217.688 105.653ZM214.087 104.629L216.64 105.355L217.783 101.331L217.595 101.521L214.087 104.629ZM219.1 109.794L218.204 109.539L224.163 101.602L225.053 101.855L219.1 109.794ZM231.205 104.236L225.641 110.891L224.548 110.58L230.023 104.193L225.582 102.931L225.825 102.074L231.371 103.65L231.205 104.236Z" fill="white"/>
</g>
<g filter="url(#filter3_d)">
<path d="M85.094 46.478C95.6051 46.478 104.126 37.9571 104.126 27.446C104.126 16.9349 95.6051 8.414 85.094 8.414C74.5829 8.414 66.062 16.9349 66.062 27.446C66.062 37.9571 74.5829 46.478 85.094 46.478Z" fill="#2A566F"/>
<path d="M92.3374 27.7072C92.2671 29.1252 91.9155 30.2443 91.2827 31.0647C90.6499 31.885 89.8032 32.2951 88.7427 32.2951C87.647 32.2951 86.9438 31.8029 86.6333 30.8186C86.3169 31.3166 85.9536 31.6887 85.5435 31.9348C85.1392 32.175 84.7202 32.2951 84.2866 32.2951C83.4546 32.2951 82.8247 31.9553 82.397 31.2756C81.9692 30.5959 81.811 29.6555 81.9224 28.4543C82.0103 27.4875 82.23 26.6262 82.5815 25.8703C82.939 25.1086 83.396 24.5109 83.9526 24.0773C84.5151 23.6438 85.104 23.427 85.7192 23.427C86.1938 23.427 86.6187 23.4914 86.9937 23.6203C87.3687 23.7434 87.7905 23.9895 88.2593 24.3586L87.8022 29.2277C87.6909 30.5813 88.0659 31.258 88.9272 31.258C89.5894 31.258 90.1255 30.9299 90.5356 30.2736C90.9458 29.6174 91.1685 28.7619 91.2036 27.7072C91.3149 25.4279 90.8901 23.6906 89.9292 22.4953C88.9741 21.3 87.5181 20.7023 85.561 20.7023C84.3833 20.7023 83.3374 20.9953 82.4233 21.5813C81.5093 22.1613 80.7886 23.0022 80.2612 24.1037C79.7339 25.2053 79.438 26.4768 79.3735 27.9182C79.3032 29.3713 79.479 30.634 79.9009 31.7063C80.3228 32.7727 80.9644 33.5871 81.8257 34.1496C82.6929 34.718 83.7388 35.0022 84.9634 35.0022C85.4907 35.0022 86.0181 34.9377 86.5454 34.8088C87.0786 34.6799 87.521 34.5129 87.8726 34.3078L88.1978 35.3186C87.8345 35.5471 87.3511 35.7346 86.7476 35.8811C86.1499 36.0275 85.5435 36.1008 84.9282 36.1008C83.4634 36.1008 82.2036 35.7697 81.1489 35.1076C80.0942 34.4514 79.3032 33.5022 78.7759 32.26C78.2544 31.0236 78.0288 29.5764 78.0991 27.9182C78.1694 26.3068 78.5298 24.8596 79.1802 23.5764C79.8306 22.2873 80.7124 21.2941 81.8257 20.5969C82.939 19.8938 84.1958 19.5422 85.5962 19.5422C87.0552 19.5422 88.3062 19.8703 89.3491 20.5266C90.3921 21.1828 91.1685 22.1291 91.6782 23.3654C92.188 24.6018 92.4077 26.049 92.3374 27.7072ZM83.3198 28.4543C83.2378 29.2863 83.314 29.925 83.5483 30.3703C83.7886 30.8156 84.1665 31.0383 84.6821 31.0383C85.0337 31.0383 85.3706 30.8889 85.6929 30.59C86.021 30.2912 86.2905 29.8635 86.5015 29.3068L86.5103 29.2277L86.9146 24.8068C86.5864 24.6369 86.2349 24.552 85.8599 24.552C85.1743 24.552 84.606 24.9006 84.1548 25.5979C83.7095 26.2951 83.4312 27.2473 83.3198 28.4543Z" fill="#0E303F"/>
<path d="M92.3374 27.0019C92.2671 28.4199 91.9155 29.539 91.2827 30.3593C90.6499 31.1796 89.8032 31.5898 88.7427 31.5898C87.647 31.5898 86.9438 31.0976 86.6333 30.1132C86.3169 30.6113 85.9536 30.9833 85.5435 31.2294C85.1392 31.4697 84.7202 31.5898 84.2866 31.5898C83.4546 31.5898 82.8247 31.2499 82.397 30.5703C81.9692 29.8906 81.811 28.9501 81.9224 27.749C82.0103 26.7822 82.23 25.9208 82.5815 25.165C82.939 24.4033 83.396 23.8056 83.9526 23.372C84.5151 22.9384 85.104 22.7216 85.7192 22.7216C86.1938 22.7216 86.6187 22.7861 86.9937 22.915C87.3687 23.038 87.7905 23.2841 88.2593 23.6533L87.8022 28.5224C87.6909 29.8759 88.0659 30.5527 88.9272 30.5527C89.5894 30.5527 90.1255 30.2245 90.5356 29.5683C90.9458 28.912 91.1685 28.0566 91.2036 27.0019C91.3149 24.7226 90.8901 22.9853 89.9292 21.79C88.9741 20.5947 87.5181 19.997 85.561 19.997C84.3833 19.997 83.3374 20.29 82.4233 20.8759C81.5093 21.456 80.7886 22.2968 80.2612 23.3984C79.7339 24.4999 79.438 25.7714 79.3735 27.2128C79.3032 28.666 79.479 29.9286 79.9009 31.0009C80.3228 32.0673 80.9644 32.8818 81.8257 33.4443C82.6929 34.0126 83.7388 34.2968 84.9634 34.2968C85.4907 34.2968 86.0181 34.2324 86.5454 34.1035C87.0786 33.9745 87.521 33.8076 87.8726 33.6025L88.1978 34.6132C87.8345 34.8417 87.3511 35.0292 86.7476 35.1757C86.1499 35.3222 85.5435 35.3954 84.9282 35.3954C83.4634 35.3954 82.2036 35.0644 81.1489 34.4023C80.0942 33.746 79.3032 32.7968 78.7759 31.5546C78.2544 30.3183 78.0288 28.871 78.0991 27.2128C78.1694 25.6015 78.5298 24.1542 79.1802 22.871C79.8306 21.582 80.7124 20.5888 81.8257 19.8915C82.939 19.1884 84.1958 18.8369 85.5962 18.8369C87.0552 18.8369 88.3062 19.165 89.3491 19.8212C90.3921 20.4775 91.1685 21.4238 91.6782 22.6601C92.188 23.8964 92.4077 25.3437 92.3374 27.0019ZM83.3198 27.749C83.2378 28.581 83.314 29.2197 83.5483 29.665C83.7886 30.1103 84.1665 30.3329 84.6821 30.3329C85.0337 30.3329 85.3706 30.1835 85.6929 29.8847C86.021 29.5859 86.2905 29.1581 86.5015 28.6015L86.5103 28.5224L86.9146 24.1015C86.5864 23.9316 86.2349 23.8466 85.8599 23.8466C85.1743 23.8466 84.606 24.1953 84.1548 24.8925C83.7095 25.5898 83.4312 26.5419 83.3198 27.749Z" fill="white"/>
</g>
<g filter="url(#filter4_d)">
<path d="M175.6 41.184C186.973 41.184 196.192 31.9647 196.192 20.592C196.192 9.21936 186.973 0 175.6 0C164.228 0 155.008 9.21936 155.008 20.592C155.008 31.9647 164.228 41.184 175.6 41.184Z" fill="#2A566F"/>
<path d="M175.6 38.064C185.25 38.064 193.072 30.2415 193.072 20.592C193.072 10.9425 185.25 3.12 175.6 3.12C165.951 3.12 158.128 10.9425 158.128 20.592C158.128 30.2415 165.951 38.064 175.6 38.064Z" fill="#FDFDFE"/>
<path d="M175.6 7.05899C175.873 7.05899 176.068 6.86399 176.068 6.59099V4.67998C176.068 4.40697 175.873 4.21198 175.6 4.21198C175.327 4.21198 175.132 4.40697 175.132 4.67998V6.59099C175.132 6.82499 175.327 7.05899 175.6 7.05899Z" fill="#005F7D"/>
<path d="M184.297 10.218C184.492 10.374 184.804 10.374 184.96 10.179L186.208 8.69697C186.364 8.50197 186.364 8.18996 186.169 8.03396C185.974 7.87796 185.662 7.87797 185.506 8.07297L184.258 9.55496C184.063 9.74996 184.102 10.062 184.297 10.218Z" fill="#005F7D"/>
<path d="M188.899 18.252C188.938 18.486 189.172 18.681 189.445 18.642L191.317 18.291C191.551 18.252 191.746 18.018 191.707 17.745C191.668 17.511 191.434 17.316 191.161 17.355L189.289 17.706C189.055 17.745 188.86 17.979 188.899 18.252Z" fill="#005F7D"/>
<path d="M187.3 27.339C187.183 27.573 187.261 27.846 187.456 27.963L189.133 28.938C189.367 29.055 189.64 28.977 189.757 28.782C189.874 28.548 189.796 28.275 189.601 28.158L187.924 27.183C187.729 27.066 187.417 27.144 187.3 27.339Z" fill="#005F7D"/>
<path d="M180.202 33.306C179.968 33.384 179.851 33.657 179.929 33.891L180.592 35.685C180.67 35.919 180.943 36.036 181.177 35.958C181.411 35.88 181.528 35.607 181.45 35.373L180.787 33.579C180.709 33.345 180.436 33.228 180.202 33.306Z" fill="#005F7D"/>
<path d="M170.959 33.306C170.725 33.228 170.452 33.345 170.374 33.579L169.711 35.373C169.633 35.607 169.75 35.88 169.984 35.958C170.218 36.036 170.491 35.919 170.569 35.685L171.232 33.891C171.31 33.657 171.193 33.384 170.959 33.306Z" fill="#005F7D"/>
<path d="M163.861 27.339C163.744 27.105 163.432 27.027 163.237 27.183L161.56 28.158C161.326 28.275 161.248 28.587 161.404 28.782C161.521 29.016 161.833 29.094 162.028 28.938L163.705 27.963C163.9 27.846 163.978 27.573 163.861 27.339Z" fill="#005F7D"/>
<path d="M162.262 18.252C162.301 18.018 162.145 17.745 161.872 17.706L160 17.355C159.766 17.316 159.493 17.472 159.454 17.745C159.415 17.979 159.571 18.252 159.844 18.291L161.716 18.642C161.989 18.642 162.223 18.486 162.262 18.252Z" fill="#005F7D"/>
<path d="M166.903 10.218C167.098 10.062 167.137 9.74999 166.942 9.55499L165.694 8.07298C165.538 7.87798 165.226 7.83898 165.031 8.03398C164.836 8.18998 164.797 8.50199 164.992 8.69699L166.24 10.179C166.396 10.374 166.708 10.374 166.903 10.218Z" fill="#005F7D"/>
<path d="M167.722 29.289C167.956 29.523 168.346 29.484 168.541 29.25L175.873 21.216C176.107 20.982 176.068 20.592 175.834 20.397C175.6 20.163 175.21 20.202 175.015 20.436L167.683 28.47C167.488 28.704 167.488 29.094 167.722 29.289Z" fill="#F89D18"/>
<path d="M175.6 20.436H163.198V20.748H175.6V20.436Z" fill="#2DA191"/>
<path d="M175.6 22.035C176.397 22.035 177.043 21.3889 177.043 20.592C177.043 19.795 176.397 19.149 175.6 19.149C174.803 19.149 174.157 19.795 174.157 20.592C174.157 21.3889 174.803 22.035 175.6 22.035Z" fill="#F89D18"/>
<path d="M175.327 20.436H175.873C176.302 20.436 176.614 20.085 176.614 19.695V11.271C176.614 10.842 176.263 10.53 175.873 10.53H175.327C174.898 10.53 174.586 10.881 174.586 11.271V19.695C174.547 20.085 174.898 20.436 175.327 20.436Z" fill="#F89D18"/>
</g>
<g filter="url(#filter5_d)">
<path d="M31.5 38C21.2931 38 13 46.2931 13 56.5C13 66.7069 21.2931 75 31.5 75V38Z" fill="#FFBF0F"/>
<path d="M31.5 38C41.7069 38 50 46.2931 50 56.5C50 66.7069 41.7069 75 31.5 75V38Z" fill="#F89D18"/>
<path d="M31.5 42.0962C30.8956 42.0962 30.2913 42.1633 29.6869 42.3312C28.7468 42.5663 27.8738 43.1035 27.3366 43.9428C26.8666 44.6479 26.6316 45.5209 26.598 46.3603C26.598 47.2668 26.598 48.1733 26.598 49.0799C26.6316 49.2477 26.4637 49.382 26.3965 49.5499C25.9936 50.2886 26.1615 51.3294 26.833 51.8666C27.0009 51.9673 27.0345 52.2024 27.1016 52.3702C27.4038 53.2768 27.8738 54.1162 28.4782 54.8212V55.8285C28.4782 57.5073 27.1016 58.8839 25.4228 58.8839H23.9119C23.9119 58.8839 21.1588 59.6561 19.3457 63.4501V64.961C19.3457 65.8004 20.0172 66.4719 20.8566 66.4719H31.5V42.0962Z" fill="white"/>
<path d="M31.5 42.0962C32.1044 42.0962 32.7087 42.1633 33.3131 42.3312C34.2532 42.5663 35.1261 43.1035 35.6633 43.9428C36.1334 44.6479 36.3684 45.5209 36.402 46.3603C36.402 47.2668 36.402 48.1733 36.402 49.0799C36.3684 49.2477 36.5363 49.382 36.6034 49.5499C37.0064 50.2886 36.8385 51.3294 36.167 51.8666C35.9991 51.9673 35.9655 52.2024 35.8984 52.3702C35.5962 53.2768 35.1261 54.1162 34.5218 54.8212V55.8285C34.5218 57.5073 35.8984 58.8839 37.5771 58.8839H39.088C39.088 58.8839 41.8412 59.6561 43.6543 63.4501V64.961C43.6543 65.8004 42.9828 66.4719 42.1434 66.4719H31.5V42.0962Z" fill="#CDE8D9"/>
</g>
<g filter="url(#filter6_d)">
<path d="M216.433 35.88C205.747 35.88 197.089 44.538 197.089 55.224C197.089 65.91 205.747 74.568 216.433 74.568V35.88Z" fill="#FFBF0F"/>
<path d="M216.433 35.88C227.119 35.88 235.777 44.538 235.777 55.224C235.777 65.91 227.119 74.568 216.433 74.568V35.88Z" fill="#F89D18"/>
<path d="M216.433 41.184C208.945 41.184 202.9 47.268 202.9 54.717C202.9 62.205 208.984 68.25 216.433 68.25C216.901 68.25 217.252 67.86 217.252 67.431C217.252 66.963 216.862 66.612 216.433 66.612C209.881 66.612 204.577 61.269 204.577 54.756C204.577 48.204 209.92 42.9 216.433 42.9C222.985 42.9 228.289 48.204 228.289 54.756C228.289 57.486 226.846 60.216 224.74 61.347C223.999 61.776 223.18 61.971 222.283 61.971C222.79 61.659 223.258 61.23 223.609 60.723C223.687 60.606 223.765 60.528 223.804 60.411C224.077 59.748 224.116 59.007 224.272 58.344C224.467 57.447 220.411 55.731 220.06 56.823C219.943 57.213 219.748 58.539 219.475 58.851C219.241 59.163 218.695 59.007 218.344 58.695C217.408 57.915 216.394 56.745 215.458 55.809C215.419 55.77 215.419 55.77 215.38 55.731C215.341 55.692 215.341 55.692 215.302 55.653C214.405 54.756 213.235 53.703 212.416 52.767C212.104 52.416 211.987 51.87 212.26 51.636C212.611 51.363 213.898 51.168 214.288 51.051C215.38 50.7 213.664 46.644 212.767 46.839C212.065 46.995 211.324 47.034 210.7 47.307C210.583 47.346 210.505 47.424 210.388 47.502C208.087 48.984 207.775 52.533 210.037 55.224C210.895 56.238 211.792 57.213 212.728 58.188C212.767 58.227 212.767 58.227 212.806 58.266C212.845 58.305 212.845 58.305 212.884 58.344C213.859 59.28 214.99 60.645 216.823 61.893C220.723 64.506 223.726 63.765 225.481 62.79C228.523 61.113 229.888 57.525 229.888 54.717C229.966 47.268 223.921 41.184 216.433 41.184Z" fill="white"/>
<path d="M216.433 41.184C208.945 41.184 202.9 47.268 202.9 54.717C202.9 62.205 208.984 68.25 216.433 68.25C216.901 68.25 217.252 67.86 217.252 67.431C217.252 66.963 216.862 66.612 216.433 66.612C209.881 66.612 204.577 61.269 204.577 54.756C204.577 48.204 209.92 42.9 216.433 42.9C222.985 42.9 228.289 48.204 228.289 54.756C228.289 57.486 226.846 60.216 224.74 61.347C223.999 61.776 223.18 61.971 222.283 61.971C222.79 61.659 223.258 61.23 223.609 60.723C223.687 60.606 223.765 60.528 223.804 60.411C224.077 59.748 224.116 59.007 224.272 58.344C224.467 57.447 220.411 55.731 220.06 56.823C219.943 57.213 219.748 58.539 219.475 58.851C219.241 59.163 218.695 59.007 218.344 58.695C217.408 57.915 216.394 56.745 215.458 55.809C215.419 55.77 215.419 55.77 215.38 55.731C215.341 55.692 215.341 55.692 215.302 55.653C214.405 54.756 213.235 53.703 212.416 52.767C212.104 52.416 211.987 51.87 212.26 51.636C212.611 51.363 213.898 51.168 214.288 51.051C215.38 50.7 213.664 46.644 212.767 46.839C212.065 46.995 211.324 47.034 210.7 47.307C210.583 47.346 210.505 47.424 210.388 47.502C208.087 48.984 207.775 52.533 210.037 55.224C210.895 56.238 211.792 57.213 212.728 58.188C212.767 58.227 212.767 58.227 212.806 58.266C212.845 58.305 212.845 58.305 212.884 58.344C213.859 59.28 214.99 60.645 216.823 61.893C220.723 64.506 223.726 63.765 225.481 62.79C228.523 61.113 229.888 57.525 229.888 54.717C229.966 47.268 223.921 41.184 216.433 41.184Z" fill="#CDE8D9"/>
</g>
<defs>
<filter id="filter0_d" x="79.415" y="52.3672" width="107.294" height="101.064" filterUnits="userSpaceOnUse" color-interpolation-filters="sRGB">
<feFlood flood-opacity="0" result="BackgroundImageFix"/>
<feColorMatrix in="SourceAlpha" type="matrix" values="0 0 0 0 0 0 0 0 0 0 0 0 0 0 0 0 0 0 127 0"/>
<feOffset dx="2" dy="4"/>
<feGaussianBlur stdDeviation="2"/>
<feColorMatrix type="matrix" values="0 0 0 0 0 0 0 0 0 0 0 0 0 0 0 0 0 0 0.25 0"/>
<feBlend mode="normal" in2="BackgroundImageFix" result="effect1_dropShadow"/>
<feBlend mode="normal" in="SourceGraphic" in2="effect1_dropShadow" result="shape"/>
</filter>
<filter id="filter1_d" x="0" y="94.614" width="70.5562" height="65.993" filterUnits="userSpaceOnUse" color-interpolation-filters="sRGB">
<feFlood flood-opacity="0" result="BackgroundImageFix"/>
<feColorMatrix in="SourceAlpha" type="matrix" values="0 0 0 0 0 0 0 0 0 0 0 0 0 0 0 0 0 0 127 0"/>
<feOffset dy="4"/>
<feGaussianBlur stdDeviation="2"/>
<feColorMatrix type="matrix" values="0 0 0 0 0 0 0 0 0 0 0 0 0 0 0 0 0 0 0.25 0"/>
<feBlend mode="normal" in2="BackgroundImageFix" result="effect1_dropShadow"/>
<feBlend mode="normal" in="SourceGraphic" in2="effect1_dropShadow" result="shape"/>
</filter>
<filter id="filter2_d" x="190.699" y="85.8277" width="71.423" height="61.283" filterUnits="userSpaceOnUse" color-interpolation-filters="sRGB">
<feFlood flood-opacity="0" result="BackgroundImageFix"/>
<feColorMatrix in="SourceAlpha" type="matrix" values="0 0 0 0 0 0 0 0 0 0 0 0 0 0 0 0 0 0 127 0"/>
<feOffset dy="4"/>
<feGaussianBlur stdDeviation="2"/>
<feColorMatrix type="matrix" values="0 0 0 0 0 0 0 0 0 0 0 0 0 0 0 0 0 0 0.25 0"/>
<feBlend mode="normal" in2="BackgroundImageFix" result="effect1_dropShadow"/>
<feBlend mode="normal" in="SourceGraphic" in2="effect1_dropShadow" result="shape"/>
</filter>
<filter id="filter3_d" x="62.062" y="8.414" width="46.064" height="46.064" filterUnits="userSpaceOnUse" color-interpolation-filters="sRGB">
<feFlood flood-opacity="0" result="BackgroundImageFix"/>
<feColorMatrix in="SourceAlpha" type="matrix" values="0 0 0 0 0 0 0 0 0 0 0 0 0 0 0 0 0 0 127 0"/>
<feOffset dy="4"/>
<feGaussianBlur stdDeviation="2"/>
<feColorMatrix type="matrix" values="0 0 0 0 0 0 0 0 0 0 0 0 0 0 0 0 0 0 0.25 0"/>
<feBlend mode="normal" in2="BackgroundImageFix" result="effect1_dropShadow"/>
<feBlend mode="normal" in="SourceGraphic" in2="effect1_dropShadow" result="shape"/>
</filter>
<filter id="filter4_d" x="151.008" y="0" width="49.184" height="49.184" filterUnits="userSpaceOnUse" color-interpolation-filters="sRGB">
<feFlood flood-opacity="0" result="BackgroundImageFix"/>
<feColorMatrix in="SourceAlpha" type="matrix" values="0 0 0 0 0 0 0 0 0 0 0 0 0 0 0 0 0 0 127 0"/>
<feOffset dy="4"/>
<feGaussianBlur stdDeviation="2"/>
<feColorMatrix type="matrix" values="0 0 0 0 0 0 0 0 0 0 0 0 0 0 0 0 0 0 0.25 0"/>
<feBlend mode="normal" in2="BackgroundImageFix" result="effect1_dropShadow"/>
<feBlend mode="normal" in="SourceGraphic" in2="effect1_dropShadow" result="shape"/>
</filter>
<filter id="filter5_d" x="9" y="38" width="45" height="45" filterUnits="userSpaceOnUse" color-interpolation-filters="sRGB">
<feFlood flood-opacity="0" result="BackgroundImageFix"/>
<feColorMatrix in="SourceAlpha" type="matrix" values="0 0 0 0 0 0 0 0 0 0 0 0 0 0 0 0 0 0 127 0"/>
<feOffset dy="4"/>
<feGaussianBlur stdDeviation="2"/>
<feColorMatrix type="matrix" values="0 0 0 0 0 0 0 0 0 0 0 0 0 0 0 0 0 0 0.25 0"/>
<feBlend mode="normal" in2="BackgroundImageFix" result="effect1_dropShadow"/>
<feBlend mode="normal" in="SourceGraphic" in2="effect1_dropShadow" result="shape"/>
</filter>
<filter id="filter6_d" x="193.089" y="35.88" width="46.6877" height="46.688" filterUnits="userSpaceOnUse" color-interpolation-filters="sRGB">
<feFlood flood-opacity="0" result="BackgroundImageFix"/>
<feColorMatrix in="SourceAlpha" type="matrix" values="0 0 0 0 0 0 0 0 0 0 0 0 0 0 0 0 0 0 127 0"/>
<feOffset dy="4"/>
<feGaussianBlur stdDeviation="2"/>
<feColorMatrix type="matrix" values="0 0 0 0 0 0 0 0 0 0 0 0 0 0 0 0 0 0 0.25 0"/>
<feBlend mode="normal" in2="BackgroundImageFix" result="effect1_dropShadow"/>
<feBlend mode="normal" in="SourceGraphic" in2="effect1_dropShadow" result="shape"/>
</filter>
</defs>
</svg>
