<svg width="32" height="32" viewBox="0 0 32 32" fill="none" xmlns="http://www.w3.org/2000/svg">
<rect x="4.40039" y="24.0956" width="4.72463" height="5.52837" transform="rotate(-45 4.40039 24.0956)" fill="#FF5722"/>
<rect width="4.72463" height="5.52837" transform="matrix(-0.707107 -0.707107 -0.707107 0.707107 28.5059 24.0956)" fill="#FF5722"/>
<g clip-path="url(#clip0)">
<path d="M26.7982 20.1114C28.0936 18.1441 28.8487 15.7911 28.8487 13.2644C28.8487 6.38031 23.2479 0.779724 16.3638 0.779724C9.47965 0.779724 3.87907 6.38031 3.87907 13.2644C3.87907 15.7911 4.63425 18.1441 5.92938 20.1114L1.0459 27.2335L6.63395 26.1917L7.67602 31.7797L12.2814 25.063C13.5614 25.5072 14.9348 25.7492 16.3638 25.7492C17.793 25.7492 19.1664 25.5072 20.4462 25.063L25.0518 31.7797L26.0936 26.1917L31.6817 27.2335L26.7982 20.1114ZM8.66345 27.1086L8.09512 24.0605L5.0472 24.629L7.1039 21.6294C8.08897 22.7187 9.26324 23.6336 10.574 24.3228L8.66345 27.1086ZM5.70612 13.2644C5.70612 7.38785 10.4872 2.60677 16.3638 2.60677C22.2406 2.60677 27.0217 7.38785 27.0217 13.2644C27.0217 19.1413 22.2406 23.9223 16.3638 23.9223C10.4872 23.9223 5.70612 19.1413 5.70612 13.2644ZM24.6325 24.0605L24.0641 27.1086L22.1538 24.3228C23.4646 23.6336 24.6388 22.7187 25.6239 21.6294L27.6806 24.6288L24.6325 24.0605Z" fill="#FF5722"/>
<path d="M26.7982 20.1114C28.0936 18.1441 28.8487 15.7911 28.8487 13.2644C28.8487 6.38031 23.2479 0.779724 16.3638 0.779724C9.47965 0.779724 3.87907 6.38031 3.87907 13.2644C3.87907 15.7911 4.63425 18.1441 5.92938 20.1114L1.0459 27.2335L6.63395 26.1917L7.67602 31.7797L12.2814 25.063C13.5614 25.5072 14.9348 25.7492 16.3638 25.7492C17.793 25.7492 19.1664 25.5072 20.4462 25.063L25.0518 31.7797L26.0936 26.1917L31.6817 27.2335L26.7982 20.1114ZM8.66345 27.1086L8.09512 24.0605L5.0472 24.629L7.1039 21.6294C8.08897 22.7187 9.26324 23.6336 10.574 24.3228L8.66345 27.1086ZM5.70612 13.2644C5.70612 7.38785 10.4872 2.60677 16.3638 2.60677C22.2406 2.60677 27.0217 7.38785 27.0217 13.2644C27.0217 19.1413 22.2406 23.9223 16.3638 23.9223C10.4872 23.9223 5.70612 19.1413 5.70612 13.2644ZM24.6325 24.0605L24.0641 27.1086L22.1538 24.3228C23.4646 23.6336 24.6388 22.7187 25.6239 21.6294L27.6806 24.6288L24.6325 24.0605Z" stroke="white"/>
<path d="M14.1381 16.0063L11.1675 13.036L9.87567 14.3278L14.1381 18.5902L22.8519 9.87666L21.56 8.58483L14.1381 16.0063Z" fill="#414141"/>
</g>
<defs>
<clipPath id="clip0">
<rect width="31" height="31" fill="white" transform="translate(0.864258 0.779724)"/>
</clipPath>
</defs>
</svg>
