<svg width="361" height="153" viewBox="0 0 361 153" fill="none" xmlns="http://www.w3.org/2000/svg">
<path d="M124.24 57.7665C124.24 57.7665 126.019 57.3058 121.994 78.1321C117.923 98.9585 114.273 116.606 114.273 116.606C114.273 116.606 113.525 120.154 112.027 119.693C110.53 119.232 109.5 109.833 109.407 109.556C109.313 109.28 109.126 100.525 109.407 99.1428C109.687 97.7606 112.121 83.9838 112.214 82.5094C112.308 81.0349 114.32 72.0962 115.069 70.2531C115.817 68.4101 118.204 64.8622 118.766 64.4936C119.233 64.1711 122.322 59.7017 123.585 58.1351C123.773 57.7204 124.24 57.7665 124.24 57.7665Z" fill="#B5B5B5"/>
<path d="M80.4865 151.024C80.4865 151.024 88.0672 150.702 103.416 97.1615C117.127 49.2885 115.021 52.0992 115.021 52.0992L101.17 53.1128L78.5211 59.7939C78.5211 59.7939 69.443 71.4511 69.209 73.9392C68.975 76.4273 68.6942 99.6957 69.209 101.308C69.6301 102.921 80.4865 151.024 80.4865 151.024Z" fill="#2D2420"/>
<path d="M151.521 54.403C151.521 54.403 154.282 47.3994 155.03 46.2475C155.779 45.1417 159.055 43.3908 162.471 43.3908C165.887 43.3908 173.935 42.1468 178.475 41.0409C183.014 39.9351 190.173 39.6586 197.473 40.3037C204.773 40.9027 211.558 40.9027 214.226 40.9027C214.226 40.9027 218.11 41.2713 221.9 42.3771C225.69 43.483 228.826 43.9898 234.488 42.7457C240.15 41.5017 263.313 36.6637 263.313 36.6637L279.13 88.1768C279.13 88.1768 253.393 94.5814 249.462 97.1155C245.578 99.6497 237.389 106.607 237.389 106.607L198.128 143.422C198.128 143.422 193.589 148.767 190.688 150.103C187.787 151.485 180.346 152.453 180.346 152.453C180.346 152.453 174.029 152.223 172.812 146.371C172.812 146.371 168.788 147.385 165.138 145.357C161.488 143.376 155.686 141.763 155.686 139.413C155.686 139.413 147.496 137.801 144.502 137.294C141.46 136.787 134.441 130.705 140.618 121.536C140.618 121.536 139.214 121.904 138.184 122.55C137.108 123.149 135.236 125.545 133.832 125.775C132.429 126.005 128.17 126.789 126.766 126.65C125.363 126.512 119.841 122.181 119.841 118.08C119.841 113.979 121.666 111.952 121.666 111.952L155.311 84.5828L149.649 56.7068L151.193 54.5412" fill="#FFD5B8"/>
<path d="M0 18.9704L114.975 52.0991C114.975 52.0991 98.0817 78.639 90.5478 107.39C83.0138 136.142 80.4869 151.024 80.4869 151.024L0 124.623V18.9704Z" fill="#594A42"/>
<path d="M113.524 54.4951L124.24 57.7204C124.24 57.7204 123.772 57.9047 123.585 58.1812C118.297 67.5807 116.285 70.0688 112.12 99.0968C112.12 99.0968 110.342 111.722 111.325 118.218C111.465 119.186 111.933 119.647 111.933 119.647L89.1909 112.597C95.1338 90.8491 96.1633 89.559 99.5325 81.2192C105.616 66.4288 113.524 54.4951 113.524 54.4951Z" fill="#E6E7E8"/>
<path d="M278.709 30.3973L264.577 32.7932C264.577 32.7932 262.331 33.3001 263.314 36.7097C264.296 40.1193 282.312 98.636 282.312 98.636C282.312 98.636 287.413 108.312 298.737 106.054C310.062 103.843 307.628 103.658 307.628 103.658L278.709 31.5953V30.3973Z" fill="#E6E7E8"/>
<path d="M361 0C361 0 303.302 20.6421 295.628 22.6234C287.953 24.6046 267.925 29.4426 267.925 29.4426C267.925 29.4426 262.637 29.673 265.679 41.3302C268.721 52.9875 301.945 126.387 301.945 126.387L361 106.344V0Z" fill="#414042"/>
<path d="M139.308 122.089L163.688 105.317C163.688 105.317 168.461 101.354 168.742 97.2076C168.742 97.2076 169.772 101.861 163.829 106.699C157.933 111.537 137.998 125.775 138.138 127.802C138.138 127.802 138.326 125.406 139.683 123.102C139.87 122.78 140.525 121.72 140.525 121.72L139.308 122.089Z" fill="#EAB896"/>
<path d="M155.639 139.505C155.358 139.459 157.651 139.459 159.897 138.077C162.144 136.695 175.948 123.471 176.978 122.734C178.007 121.997 180.113 120.983 181.423 121.075C181.423 121.075 179.13 121.259 177.165 123.425L162.097 138.768C162.097 138.768 159.71 141.533 156.435 141.072C156.435 141.072 156.154 140.842 155.967 140.565C155.78 140.289 155.639 140.012 155.639 139.966C155.686 139.828 155.639 139.505 155.639 139.505C155.639 139.505 156.435 139.644 155.639 139.505Z" fill="#EAB896"/>
<path d="M171.736 146.601C171.736 146.601 173.14 146.417 174.591 145.956C175.34 145.726 175.48 145.68 176.65 145.035C178.568 144.021 188.255 133.239 191.203 131.074C194.151 128.954 195.134 129.138 197.801 129.138C197.801 129.138 193.121 129.369 190.641 132.548C188.957 134.76 180.393 145.449 176.65 147.154C174.965 147.937 173.374 148.122 173.374 148.122C173.374 148.122 173.093 147.523 173.047 147.292C173 147.108 172.813 146.463 172.813 146.463L171.736 146.601Z" fill="#EAB896"/>
<path d="M249.416 97.1616C249.416 97.1616 253.206 99.1889 253.393 103.566C253.581 107.943 250.164 113.426 246.982 113.703C243.754 113.979 238.747 110.892 237.904 108.312C237.062 105.686 239.776 102.46 241.975 100.479C244.128 98.5438 247.31 96.3322 249.135 97.2998" fill="#FFBC8F"/>
<path d="M243.333 120.246C243.333 120.246 243.473 115.362 240.104 112.643C236.782 109.925 233.6 106.008 231.166 105.225C228.733 104.442 224.1 103.658 220.684 108.404C217.268 113.104 218.578 117.573 220.965 119.37C223.352 121.167 228.125 126.374 229.903 127.249C231.681 128.125 238.232 129.737 240.432 127.249C242.631 124.669 243.473 121.95 243.333 120.246Z" fill="#FFBC8F"/>
<path d="M225.832 125.084C225.832 125.084 219.514 119.324 218.11 118.218C216.66 117.112 214.133 113.933 210.623 115.408C207.114 116.882 203.698 123.333 205.476 126.696C207.254 130.06 213.712 136.879 214.18 137.11C214.601 137.34 219.28 140.934 221.854 139.966C224.428 138.953 227.095 134.76 227.469 132.456C227.797 130.152 227.75 126.788 225.832 125.084Z" fill="#FFBC8F"/>
<path d="M206.551 129.415C206.551 129.415 200.702 128.908 198.971 133.884C197.239 138.86 198.69 142.639 198.69 142.639L195.555 146.233C195.555 146.233 201.544 149.873 205.709 149.135C209.874 148.398 214.647 145.541 214.787 142.685C214.881 139.828 212.541 133.608 206.551 129.415Z" fill="#FFBC8F"/>
<path d="M139.403 62.7888C139.403 62.7888 153.862 51.1315 170.24 45.1877C186.618 39.2439 189.52 42.8378 194.293 43.4368C199.066 44.0358 205.102 45.0495 207.395 45.9249C209.641 46.8004 211.794 48.6434 213.057 53.3432C214.321 58.043 217.596 63.1574 219.094 64.7701C220.591 66.3827 221.714 70.3453 219.094 73.0638C216.427 75.7823 204.12 77.6714 195.556 63.7564C195.556 63.7564 186.104 63.0192 182.968 62.282C182.968 62.282 169.492 70.3453 166.356 72.9255C163.221 75.5519 159.384 82.4633 154.47 85.8269C149.557 89.1904 137.016 100.064 133.272 102.967C130.324 105.225 121.059 112.874 121.059 112.874C121.059 112.874 120.357 114.44 119.936 116.283C119.749 117.113 119.796 119.693 119.796 119.693L111.232 117.159C111.232 117.159 110.156 80.2516 122.697 59.9321L137.437 62.7888H139.403Z" fill="#FFBC8F"/>
<path d="M145.673 92.6922C145.673 92.6922 136.501 91.9089 133.226 88.7758C133.226 88.7758 135.753 91.9089 144.222 93.8902L145.673 92.6922Z" fill="#E0925C"/>
</svg>
